<svg width="180" height="180" viewBox="0 0 180 180" fill="none" xmlns="http://www.w3.org/2000/svg">
<g clip-path="url(#clip0_232_85)">
<path d="M154.634 0H25.3661C11.3568 0 0 11.3568 0 25.3661V154.634C0 168.643 11.3568 180 25.3661 180H154.634C168.643 180 180 168.643 180 154.634V25.3661C180 11.3568 168.643 0 154.634 0Z" fill="#40513B"/>
<path d="M170.657 28.5559C170.657 30.9712 168.242 33 163.411 34.6907C158.581 36.3814 152.687 37.2025 145.683 37.2025C138.679 37.2025 129.936 36.2364 119.502 34.3042C113.995 37.1542 108.971 41.4051 104.382 47.0085C99.7932 52.6119 94.9144 60.5822 89.6975 70.8712C84.4805 81.1602 80.6161 88.0195 78.2009 91.4491C75.7856 94.8788 72.4042 98.1636 68.1534 101.4C56.9466 109.708 45.2568 113.863 33.1805 113.863C26.7559 113.863 21.4907 112.51 17.3847 109.757C13.2788 107.003 11.25 103.477 11.25 99.178C11.25 97.0042 11.878 95.1203 13.1822 93.5263C14.4864 91.9805 16.0322 91.1593 17.8195 91.1593C20.7178 91.1593 22.167 92.7051 22.167 95.7C22.167 97.1491 21.7322 98.3568 20.8144 99.3712C19.9449 100.386 18.8339 100.917 17.5297 100.917C15.4042 100.917 14.3898 99.9025 14.3898 97.8254C14.3898 96.7627 14.1966 96.2313 13.8585 96.2313C13.0856 96.2313 12.6992 97.3424 12.6992 99.5161C12.6992 103.139 14.5831 106.182 18.3025 108.694C22.022 111.206 26.611 112.462 32.0695 112.462C44.0492 112.462 54.8212 107.052 64.3373 96.2313C68.8297 91.1593 74.578 82.8508 81.6305 71.2093C93.1754 52.322 105.252 39.9076 117.811 33.9661C115.396 33.5797 111.773 32.8068 106.942 31.7441C95.5907 29.2805 86.8958 28.0729 80.8576 28.0729C80.2297 28.0729 78.3458 28.1695 75.2059 28.3627C77.2831 32.3237 78.3458 36.8161 78.3458 41.8398C78.3458 51.6941 74.6263 60.9203 67.139 69.5669C59.6517 78.2136 51.6814 82.5127 43.1797 82.5127C39.6534 82.5127 36.7551 81.3534 34.5331 78.9864C32.311 76.6195 31.2 73.6246 31.2 69.9051C31.2 64.833 33.1322 59.1813 36.9966 52.95C40.861 46.7669 45.8848 41.3568 52.0195 36.7195C58.1542 32.0822 64.917 28.8458 72.2593 27.0102C68.7331 22.228 63.7093 19.8127 57.1881 19.8127C51.6814 19.8127 46.1263 21.4068 40.5229 24.6432C34.9195 27.8314 29.9924 32.2271 25.7415 37.7339C25.1136 38.6034 24.6788 38.9898 24.4856 38.9898C24.1958 38.9898 24.0508 38.8449 23.9542 38.6034C23.9542 37.8305 25.7898 35.6085 29.461 31.9373C38.2525 23.1458 47.4788 18.75 57.0915 18.75C64.5305 18.75 70.2305 21.3585 74.1432 26.6237C79.5534 25.078 85.7848 24.2568 92.789 24.2568C96.4119 24.2568 99.7449 24.4983 102.74 24.9331C105.928 25.4161 113.705 26.9619 126.071 29.4737C136.408 24.9331 146.311 22.711 155.875 22.711C165.44 22.711 170.56 24.6432 170.56 28.5076L170.657 28.5559ZM75.8822 38.6034C75.8822 35.0288 75.061 31.6958 73.4187 28.6525C63.4195 30.2949 54.0483 35.4636 45.45 44.1585C36.8034 52.8534 32.5042 61.4034 32.5042 69.8085C32.5042 73.0449 33.5186 75.75 35.4992 77.9237C37.4797 80.0974 39.9432 81.2085 42.8415 81.2085C50.3771 81.2085 57.8161 76.5712 65.0619 67.2C72.3076 57.8288 75.9305 48.361 75.9305 38.6034H75.8822ZM169.594 28.7008C169.594 27.3966 168.338 26.2856 165.778 25.4161C163.266 24.4983 160.078 24.0636 156.214 24.0636C146.649 24.0636 137.375 26.0924 128.39 30.1017C129.501 30.2949 132.496 30.8263 137.326 31.6958C144.475 33.0966 150.852 33.7729 156.407 33.7729C160.03 33.7729 163.121 33.2898 165.73 32.2754C168.338 31.261 169.642 30.0534 169.642 28.7008H169.594Z" fill="#EBD5AB"/>
<path d="M169.256 63.0941C169.256 64.1085 165.585 68.6491 158.291 76.7161C150.175 85.6042 139.597 93.6229 126.554 100.82L121.675 109.612C112.014 126.905 101.967 139.754 91.4847 148.208C80.6644 156.903 71.2449 161.25 63.2746 161.25C60.5695 161.25 58.2992 160.381 56.4636 158.642C54.628 156.903 53.7102 154.777 53.7102 152.265C53.7102 138.885 69.1195 125.069 99.8898 110.771C102.402 109.515 106.218 107.728 111.242 105.506L112.739 104.588L130.274 73.383C123.366 82.8991 118.342 89.1305 115.203 92.0771C112.063 95.0237 108.923 96.5212 105.735 96.5212C102.981 96.5212 100.614 95.3619 98.5856 93.0432C96.5568 90.7246 95.5424 87.9712 95.5424 84.8797C95.5424 81.1119 97.9093 75.1703 102.643 67.1517L118.004 41.2119C119.55 41.5017 121.289 41.5983 123.269 41.5983C125.008 41.5983 127.375 41.3568 130.467 40.922L110.807 72.8517C105.203 81.8847 102.45 87.8263 102.45 90.5797C102.45 93.5746 103.803 95.072 106.556 95.072C113.753 95.072 124.767 82.3678 139.645 56.8627L148.823 41.2119C150.369 41.5017 152.204 41.5983 154.426 41.5983C156.214 41.5983 158.436 41.3568 161.092 40.922C152.832 54.0127 141.674 73.2381 127.617 98.55C135.732 94.3475 142.592 89.8551 148.195 84.9763C153.798 80.0975 160.03 73.1898 166.937 64.3017C167.855 63.0941 168.483 62.5144 168.725 62.5144C169.111 62.5144 169.304 62.7076 169.304 63.0941H169.256ZM111.628 106.327C110.565 106.907 106.797 108.839 100.373 112.027C70.1339 127.05 55.0144 140.527 55.0144 152.507C55.0144 157.482 57.8161 159.994 63.3712 159.994C70.4237 159.994 77.428 156.178 84.3839 148.546C91.3881 140.914 99.9864 127.485 110.324 108.356L111.628 106.375V106.327Z" fill="#EBD5AB"/>
</g>
<defs>
<clipPath id="clip0_232_85">
<rect width="180" height="180" fill="white"/>
</clipPath>
</defs>
</svg>
