<svg width="48" height="48" viewBox="0 0 48 48" fill="none" xmlns="http://www.w3.org/2000/svg">
<g clip-path="url(#clip0_232_85)">
<path d="M41.2357 0H6.76429C3.02848 0 0 3.02848 0 6.76429V41.2357C0 44.9715 3.02848 48 6.76429 48H41.2357C44.9715 48 48 44.9715 48 41.2357V6.76429C48 3.02848 44.9715 0 41.2357 0Z" fill="#40513B"/>
<path d="M45.5085 7.61492C45.5085 8.25898 44.8644 8.8 43.5763 9.25085C42.2881 9.70169 40.7166 9.92068 38.8488 9.92068C36.981 9.92068 34.6495 9.66305 31.8671 9.1478C30.3986 9.9078 29.059 11.0414 27.8353 12.5356C26.6115 14.0298 25.3105 16.1553 23.9193 18.899C22.5281 21.6427 21.4976 23.4719 20.8536 24.3864C20.2095 25.301 19.3078 26.1769 18.1742 27.04C15.1858 29.2556 12.0685 30.3634 8.84814 30.3634C7.13492 30.3634 5.73085 30.0027 4.63593 29.2685C3.54102 28.5342 3 27.5939 3 26.4475C3 25.8678 3.16746 25.3654 3.51525 24.9403C3.86305 24.5281 4.27526 24.3091 4.75187 24.3091C5.52475 24.3091 5.91119 24.7214 5.91119 25.52C5.91119 25.9064 5.79525 26.2285 5.55051 26.499C5.31864 26.7695 5.02237 26.9112 4.67458 26.9112C4.1078 26.9112 3.83729 26.6407 3.83729 26.0868C3.83729 25.8034 3.78576 25.6617 3.69559 25.6617C3.48949 25.6617 3.38644 25.958 3.38644 26.5376C3.38644 27.5037 3.88881 28.3153 4.88068 28.9851C5.87254 29.6549 7.09627 29.9898 8.55187 29.9898C11.7464 29.9898 14.619 28.5471 17.1566 25.6617C18.3546 24.3092 19.8875 22.0936 21.7681 18.9892C24.8468 13.9525 28.0671 10.642 31.4163 9.05763C30.7722 8.95458 29.8061 8.74847 28.518 8.46509C25.4908 7.80814 23.1722 7.4861 21.562 7.4861C21.3946 7.4861 20.8922 7.51186 20.0549 7.56339C20.6088 8.61966 20.8922 9.81763 20.8922 11.1573C20.8922 13.7851 19.9003 16.2454 17.9037 18.5512C15.9071 20.8569 13.7817 22.0034 11.5146 22.0034C10.5742 22.0034 9.80136 21.6942 9.20881 21.063C8.61627 20.4319 8.32 19.6332 8.32 18.6414C8.32 17.2888 8.83525 15.7817 9.86576 14.12C10.8963 12.4712 12.2359 11.0285 13.8719 9.79186C15.5078 8.55525 17.3112 7.6922 19.2692 7.20271C18.3288 5.92746 16.9892 5.28339 15.2502 5.28339C13.7817 5.28339 12.3003 5.70847 10.8061 6.57153C9.31187 7.42169 7.99797 8.5939 6.86441 10.0624C6.69695 10.2942 6.58102 10.3973 6.52949 10.3973C6.4522 10.3973 6.41356 10.3586 6.3878 10.2942C6.3878 10.0881 6.87729 9.49559 7.85627 8.51661C10.2007 6.1722 12.661 5 15.2244 5C17.2081 5 18.7281 5.69559 19.7715 7.09966C21.2142 6.68746 22.8759 6.46847 24.7437 6.46847C25.7098 6.46847 26.5986 6.53288 27.3973 6.64881C28.2475 6.77763 30.3214 7.18983 33.619 7.85966C36.3756 6.64881 39.0163 6.05627 41.5668 6.05627C44.1173 6.05627 45.4827 6.57153 45.4827 7.60203L45.5085 7.61492ZM20.2353 10.2942C20.2353 9.34102 20.0163 8.4522 19.5783 7.64068C16.9119 8.07864 14.4129 9.45695 12.12 11.7756C9.81424 14.0942 8.6678 16.3742 8.6678 18.6156C8.6678 19.4786 8.93831 20.2 9.46644 20.7797C9.99458 21.3593 10.6515 21.6556 11.4244 21.6556C13.4339 21.6556 15.4176 20.419 17.3498 17.92C19.282 15.421 20.2481 12.8963 20.2481 10.2942H20.2353ZM45.2251 7.65356C45.2251 7.30576 44.8902 7.00949 44.2075 6.77763C43.5376 6.53288 42.6875 6.41695 41.657 6.41695C39.1064 6.41695 36.6332 6.95797 34.2373 8.02712C34.5336 8.07864 35.3322 8.22034 36.6203 8.4522C38.5268 8.82576 40.2271 9.0061 41.7085 9.0061C42.6746 9.0061 43.499 8.87729 44.1946 8.60678C44.8902 8.33627 45.238 8.01424 45.238 7.65356H45.2251Z" fill="#EBD5AB"/>
<path d="M45.1349 16.8251C45.1349 17.0956 44.1559 18.3064 42.2108 20.4576C40.0468 22.8278 37.2258 24.9661 33.7478 26.8854L32.4468 29.2298C29.8705 33.8414 27.1912 37.2678 24.3959 39.522C21.5105 41.8407 18.9986 43 16.8732 43C16.1519 43 15.5464 42.7681 15.057 42.3044C14.5675 41.8407 14.3227 41.2739 14.3227 40.6041C14.3227 37.0359 18.4319 33.3519 26.6373 29.539C27.3071 29.2041 28.3247 28.7275 29.6644 28.1349L30.0637 27.8902L34.7397 19.5688C32.8976 22.1064 31.558 23.7681 30.7207 24.5539C29.8834 25.3397 29.0461 25.739 28.1959 25.739C27.4617 25.739 26.8305 25.4298 26.2895 24.8115C25.7485 24.1932 25.478 23.459 25.478 22.6346C25.478 21.6298 26.1092 20.0454 27.3715 17.9071L31.4678 10.9898C31.88 11.0671 32.3437 11.0929 32.8719 11.0929C33.3356 11.0929 33.9668 11.0285 34.7912 10.9125L29.5485 19.4271C28.0542 21.8359 27.32 23.4203 27.32 24.1546C27.32 24.9532 27.6807 25.3525 28.4149 25.3525C30.3342 25.3525 33.2712 21.9647 37.2386 15.1634L39.6861 10.9898C40.0983 11.0671 40.5878 11.0929 41.1803 11.0929C41.657 11.0929 42.2495 11.0285 42.958 10.9125C40.7553 14.4034 37.7797 19.5302 34.0312 26.28C36.1953 25.1593 38.0244 23.9614 39.5186 22.6603C41.0129 21.3593 42.6746 19.5173 44.5166 17.1471C44.7614 16.8251 44.9288 16.6705 44.9932 16.6705C45.0963 16.6705 45.1478 16.722 45.1478 16.8251H45.1349ZM29.7675 28.3539C29.4841 28.5085 28.4793 29.0237 26.7661 29.8739C18.7024 33.88 14.6705 37.4739 14.6705 40.6685C14.6705 41.9953 15.4176 42.6651 16.899 42.6651C18.7797 42.6651 20.6475 41.6475 22.5024 39.6122C24.3702 37.5769 26.6631 33.9959 29.4197 28.8949L29.7675 28.3668V28.3539Z" fill="#EBD5AB"/>
</g>
<defs>
<clipPath id="clip0_232_85">
<rect width="48" height="48" fill="white"/>
</clipPath>
</defs>
</svg>
